<svg version="1.1" xmlns="http://www.w3.org/2000/svg" viewBox="0 0 979.333251953125 782.5000305175781" width="979.333251953125" height="782.5000305175781" filter="invert(93%) hue-rotate(180deg)">
  <!-- svg-source:excalidraw -->
  
  <defs>
    <style class="style-fonts">
      @font-face {
        font-family: "Virgil";
        src: url("https://excalidraw.com/Virgil.woff2");
      }
      @font-face {
        font-family: "Cascadia";
        src: url("https://excalidraw.com/Cascadia.woff2");
      }
      @font-face {
        font-family: "Assistant";
        src: url("https://excalidraw.com/Assistant-Regular.woff2");
      }
    </style>
    
  </defs>
  <rect x="0" y="0" width="979.333251953125" height="782.5000305175781" fill="#f8f9fa"></rect><g stroke-linecap="round" transform="translate(358.6666564941406 38.66668701171875) rotate(0 305.3332977294922 311.6666870117187)"><path d="M32 0 C235.73 -1.35, 437.82 -0.33, 578.67 0 M32 0 C145.44 -2.03, 259.58 -2.03, 578.67 0 M578.67 0 C600.32 0.79, 609.44 12.11, 610.67 32 M578.67 0 C601.53 1.16, 608.76 9.23, 610.67 32 M610.67 32 C609.72 243.01, 609.67 452.09, 610.67 591.33 M610.67 32 C613.12 164.37, 612.67 295.72, 610.67 591.33 M610.67 591.33 C611.65 613.34, 599.62 622.31, 578.67 623.33 M610.67 591.33 C608.67 610.71, 600.14 622.26, 578.67 623.33 M578.67 623.33 C464.4 622.44, 349.49 622.47, 32 623.33 M578.67 623.33 C444.44 622.19, 310.38 621.92, 32 623.33 M32 623.33 C11.25 624.24, 1.85 611.79, 0 591.33 M32 623.33 C9 623.64, 1.83 612.8, 0 591.33 M0 591.33 C1.13 477.3, 1.93 364.28, 0 32 M0 591.33 C-1.63 373.6, -1.76 156.16, 0 32 M0 32 C0.64 11.32, 9.25 1.23, 32 0 M0 32 C-0.15 11.25, 10.53 2.08, 32 0" stroke="#1e1e1e" stroke-width="2" fill="none"></path></g><g transform="translate(504.66668701171875 10) rotate(0 148 12.5)"><text x="148" y="17.52" font-family="Virgil, Segoe UI Emoji" font-size="20px" fill="#1e1e1e" text-anchor="middle" style="white-space: pre;" direction="ltr" dominant-baseline="alphabetic">ACA Environment</text></g><g stroke-linecap="round" transform="translate(408.1666564941406 111.33331298828125) rotate(0 104.33331298828125 93.3333740234375)"><path d="M32 0 C66.54 -1.29, 104.34 -0.88, 176.67 0 M32 0 C80.3 1.97, 127.65 1.37, 176.67 0 M176.67 0 C198.35 0.6, 210.2 10.69, 208.67 32 M176.67 0 C198.89 1.67, 209.76 11.53, 208.67 32 M208.67 32 C209.13 61.44, 209.01 89.4, 208.67 154.67 M208.67 32 C209.27 73.34, 210.2 113.68, 208.67 154.67 M208.67 154.67 C206.95 176.79, 198.3 188.39, 176.67 186.67 M208.67 154.67 C208.2 174.73, 198.59 184.56, 176.67 186.67 M176.67 186.67 C120.84 184.79, 64.28 188.11, 32 186.67 M176.67 186.67 C123.96 187.7, 71.11 187.67, 32 186.67 M32 186.67 C11.12 187.47, 1.01 177.3, 0 154.67 M32 186.67 C9.87 186.89, 1.57 176.15, 0 154.67 M0 154.67 C1.45 128.69, 0.95 107.02, 0 32 M0 154.67 C1.66 125.6, 0.81 96.66, 0 32 M0 32 C1.08 9.21, 10.56 0.39, 32 0 M0 32 C-2.04 10.24, 12.89 0.61, 32 0" stroke="#1971c2" stroke-width="2" fill="none"></path></g><g transform="translate(443.58003997802734 81.3333740234375) rotate(0 68.91992950439453 12.5)"><text x="68.91992950439453" y="17.52" font-family="Virgil, Segoe UI Emoji" font-size="20px" fill="#1971c2" text-anchor="middle" style="white-space: pre;" direction="ltr" dominant-baseline="alphabetic">healthchecksui</text></g><g stroke-linecap="round" transform="translate(404.8333435058594 428.66668701171875) rotate(0 104.33331298828125 93.3333740234375)"><path d="M32 0 C65.15 -0.82, 103.44 0.39, 176.67 0 M32 0 C64.23 0.66, 95.61 0.68, 176.67 0 M176.67 0 C198.77 -0.84, 209.4 10.39, 208.67 32 M176.67 0 C198.46 1.5, 208.33 12.22, 208.67 32 M208.67 32 C207.13 73.39, 209.89 116.32, 208.67 154.67 M208.67 32 C208.16 63.5, 208.08 97.48, 208.67 154.67 M208.67 154.67 C209.08 174.81, 196.55 187.31, 176.67 186.67 M208.67 154.67 C207.97 177.23, 198.09 185.97, 176.67 186.67 M176.67 186.67 C144.05 186.47, 114 183.69, 32 186.67 M176.67 186.67 C135.38 186.24, 94.74 184.77, 32 186.67 M32 186.67 C10.45 185.99, 0 174.76, 0 154.67 M32 186.67 C9.42 186.37, -0.41 175.55, 0 154.67 M0 154.67 C-0.19 126.34, -1.66 98.83, 0 32 M0 154.67 C-1.58 115.13, -0.39 74.13, 0 32 M0 32 C1.51 9.31, 11.78 -0.61, 32 0 M0 32 C-0.79 8.43, 10.7 0.26, 32 0" stroke="#1971c2" stroke-width="2" fill="none"></path></g><g transform="translate(451.6767120361328 400.16668701171875) rotate(0 57.48994445800781 12.5)"><text x="57.48994445800781" y="17.52" font-family="Virgil, Segoe UI Emoji" font-size="20px" fill="#1971c2" text-anchor="middle" style="white-space: pre;" direction="ltr" dominant-baseline="alphabetic">webfrontend</text></g><g stroke-linecap="round" transform="translate(707 423.58331298828125) rotate(0 104.33331298828125 93.3333740234375)"><path d="M32 0 C88.26 -0.89, 147.41 -1.77, 176.67 0 M32 0 C63.14 -1.53, 95.8 -1.69, 176.67 0 M176.67 0 C196.1 -1.61, 207.4 10.28, 208.67 32 M176.67 0 C197.98 -1.26, 208.38 11.89, 208.67 32 M208.67 32 C208.07 74.66, 207.96 114.33, 208.67 154.67 M208.67 32 C207.94 75.29, 207.83 118.3, 208.67 154.67 M208.67 154.67 C209.92 177.28, 198.94 187.91, 176.67 186.67 M208.67 154.67 C210.56 177.91, 199.26 187.72, 176.67 186.67 M176.67 186.67 C145.57 186.34, 110.45 189.25, 32 186.67 M176.67 186.67 C142.09 185.41, 107.55 186.23, 32 186.67 M32 186.67 C12.29 185.92, 1.63 176.9, 0 154.67 M32 186.67 C8.85 188, 2.04 174.68, 0 154.67 M0 154.67 C-0.09 109.57, 0.02 63.81, 0 32 M0 154.67 C1.9 117.37, 1.66 79.17, 0 32 M0 32 C1.44 11.67, 11.09 1.62, 32 0 M0 32 C-0.71 10.37, 8.73 -0.67, 32 0" stroke="#1971c2" stroke-width="2" fill="none"></path></g><g transform="translate(764.4333648681641 395.08331298828125) rotate(0 46.89994812011719 12.5)"><text x="46.89994812011719" y="17.52" font-family="Virgil, Segoe UI Emoji" font-size="20px" fill="#1971c2" text-anchor="middle" style="white-space: pre;" direction="ltr" dominant-baseline="alphabetic">apiservice</text></g><g stroke-linecap="round" transform="translate(707 109.5833740234375) rotate(0 104.33331298828125 93.3333740234375)"><path d="M32 0 C75.99 1.74, 124.65 0.78, 176.67 0 M32 0 C70.16 -0.27, 110.68 -1.26, 176.67 0 M176.67 0 C198.18 0.52, 209.39 10.87, 208.67 32 M176.67 0 C196.25 -0.06, 210.36 11.03, 208.67 32 M208.67 32 C207.74 80.75, 210.6 124.49, 208.67 154.67 M208.67 32 C208.92 63.72, 207.37 96.25, 208.67 154.67 M208.67 154.67 C209.42 176.88, 198.75 186.35, 176.67 186.67 M208.67 154.67 C210.84 176.78, 196.22 188.59, 176.67 186.67 M176.67 186.67 C125.28 186.57, 72.58 189, 32 186.67 M176.67 186.67 C142.05 185.29, 106.42 185.51, 32 186.67 M32 186.67 C8.72 188.12, 0.46 175.07, 0 154.67 M32 186.67 C12.34 187.44, 1.97 176.16, 0 154.67 M0 154.67 C-0.36 110.93, -2.27 66.97, 0 32 M0 154.67 C-1.93 106.55, -1.35 56.69, 0 32 M0 32 C1.75 11.03, 8.94 1.46, 32 0 M0 32 C0.42 11.75, 12.2 1.77, 32 0" stroke="#1971c2" stroke-width="2" fill="none"></path></g><g transform="translate(784.2133331298828 80.41668701171875) rotate(0 27.119979858398438 12.5)"><text x="27.119979858398438" y="17.52" font-family="Virgil, Segoe UI Emoji" font-size="20px" fill="#1971c2" text-anchor="middle" style="white-space: pre;" direction="ltr" dominant-baseline="alphabetic">cache</text></g><g stroke-linecap="round" transform="translate(90.99998474121094 207) rotate(0 67.33326721191409 144.00001525878906)"><path d="M32 0 C48.07 -1.58, 61.93 0.15, 102.67 0 M32 0 C57.57 -1.01, 85.35 -0.75, 102.67 0 M102.67 0 C123.47 -0.1, 136.35 9.09, 134.67 32 M102.67 0 C123.55 -2.18, 132.56 12.61, 134.67 32 M134.67 32 C134.59 116.67, 134.61 200.41, 134.67 256 M134.67 32 C133.91 92.85, 133.74 152.7, 134.67 256 M134.67 256 C135.6 276.32, 125.96 287.93, 102.67 288 M134.67 256 C135.45 276.34, 122.51 289.36, 102.67 288 M102.67 288 C81.7 288.71, 62.82 289.72, 32 288 M102.67 288 C77.4 288.13, 51.92 288.3, 32 288 M32 288 C9.65 287.38, 0.38 277.5, 0 256 M32 288 C10.4 288.22, 1.86 275.77, 0 256 M0 256 C0.02 178.91, -2.07 106.03, 0 32 M0 256 C-1.53 171.36, -1.16 86.4, 0 32 M0 32 C-1.45 9.34, 12.23 1.79, 32 0 M0 32 C-0.88 10.54, 9.59 1.83, 32 0" stroke="#1e1e1e" stroke-width="2" fill="none"></path></g><g transform="translate(10 335.5000915527344) rotate(0 148 12.5)"><text x="148" y="17.52" font-family="Virgil, Segoe UI Emoji" font-size="20px" fill="#1e1e1e" text-anchor="middle" style="white-space: pre;" direction="ltr" dominant-baseline="alphabetic">Internet</text></g><g stroke-linecap="round"><g transform="translate(226.6666259765625 253.89040511562428) rotate(0 89.56726432307624 -20.642480044163335)"><path d="M0.32 0.77 C30.48 -5.74, 150.15 -33.24, 180.11 -40.24 M-0.98 0.12 C29.07 -6.64, 148.94 -35.33, 178.96 -42.05" stroke="#e03131" stroke-width="2" fill="none"></path></g><g transform="translate(226.6666259765625 253.89040511562428) rotate(0 89.56726432307624 -20.642480044163335)"><path d="M158.01 -28.4 C164.23 -32.24, 168.75 -35.37, 178.96 -42.05 M158.01 -28.4 C163.73 -32.6, 169.31 -35.42, 178.96 -42.05" stroke="#e03131" stroke-width="2" fill="none"></path></g><g transform="translate(226.6666259765625 253.89040511562428) rotate(0 89.56726432307624 -20.642480044163335)"><path d="M154.14 -45.06 C161.08 -45.08, 166.49 -44.4, 178.96 -42.05 M154.14 -45.06 C160.93 -44.87, 167.53 -43.29, 178.96 -42.05" stroke="#e03131" stroke-width="2" fill="none"></path></g></g><mask></mask><g stroke-linecap="round"><g transform="translate(226.66651916503912 454.4625789473761) rotate(0 87.64358087151311 32.57742731586552)"><path d="M0.13 -0.04 C29.43 10.63, 147.04 54.21, 176.55 65.17 M-1.26 -1.1 C27.82 10.2, 145.96 54.93, 175.63 66.26" stroke="#e03131" stroke-width="2" fill="none"></path></g><g transform="translate(226.66651916503912 454.4625789473761) rotate(0 87.64358087151311 32.57742731586552)"><path d="M150.63 65.9 C159.63 66.08, 167.33 67.24, 175.63 66.26 M150.63 65.9 C157.95 66.87, 165.09 66.21, 175.63 66.26" stroke="#e03131" stroke-width="2" fill="none"></path></g><g transform="translate(226.66651916503912 454.4625789473761) rotate(0 87.64358087151311 32.57742731586552)"><path d="M156.7 49.92 C163.66 55.9, 169.16 62.85, 175.63 66.26 M156.7 49.92 C162.37 55.21, 167.85 58.92, 175.63 66.26" stroke="#e03131" stroke-width="2" fill="none"></path></g></g><mask></mask><g stroke-linecap="round"><g transform="translate(612.4999694824219 466.02561782905036) rotate(0 55.68284149796034 -84.91135887694145)"><path d="M1.07 0.32 C19.38 -27.86, 92.44 -141.68, 110.3 -170.14" stroke="#2f9e44" stroke-width="2.5" fill="none" stroke-dasharray="8 10"></path></g><g transform="translate(612.4999694824219 466.02561782905036) rotate(0 55.68284149796034 -84.91135887694145)"><path d="M110.32 -170.46 L110.19 -154.55 L98.12 -160.91 L110.23 -170.22" stroke="none" stroke-width="0" fill="#2f9e44" fill-rule="evenodd"></path><path d="M110.3 -170.14 C109.91 -163.93, 109.65 -161.59, 108.35 -155.27 M108.35 -155.27 C104.01 -157.2, 100.45 -159.09, 97.65 -162.07 M97.65 -162.07 C99.57 -164.25, 103.28 -166.1, 110.3 -170.14 M110.3 -170.14 C110.3 -170.14, 110.3 -170.14, 110.3 -170.14" stroke="#2f9e44" stroke-width="2.5" fill="none"></path></g></g><mask></mask><g stroke-linecap="round"><g transform="translate(614.4999694824219 524.0355226773611) rotate(0 45.51407995857312 -0.1839205397213277)"><path d="M-0.05 -0.76 C15.11 -0.69, 75.82 0.1, 91.08 0.39" stroke="#2f9e44" stroke-width="2.5" fill="none" stroke-dasharray="8 10"></path></g><g transform="translate(614.4999694824219 524.0355226773611) rotate(0 45.51407995857312 -0.1839205397213277)"><path d="M90.02 2.19 L75.66 7.49 L78.22 -4.8 L90.2 0.5" stroke="none" stroke-width="0" fill="#2f9e44" fill-rule="evenodd"></path><path d="M91.08 0.39 C85.93 1.75, 81.54 4.19, 77.39 6.52 M77.39 6.52 C76.31 4, 76.87 -0.63, 77.59 -6.16 M77.59 -6.16 C81.34 -5.5, 85.92 -0.84, 91.08 0.39 M91.08 0.39 C91.08 0.39, 91.08 0.39, 91.08 0.39" stroke="#2f9e44" stroke-width="2.5" fill="none"></path></g></g><mask></mask><g stroke-linecap="round"><g transform="translate(582.6716770981297 299.00006103515625) rotate(0 2.0566252508059506 63.67032104693351)"><path d="M1.14 -0.81 C1.6 20.68, 2.77 106.62, 2.97 128.15" stroke="#2f9e44" stroke-width="2.5" fill="none" stroke-dasharray="8 10"></path></g><g transform="translate(582.6716770981297 299.00006103515625) rotate(0 2.0566252508059506 63.67032104693351)"><path d="M1.82 130.06 L-4.17 116.46 L9.72 113.69 L3.13 127.13" stroke="none" stroke-width="0" fill="#2f9e44" fill-rule="evenodd"></path><path d="M2.97 128.15 C0 125.24, -1.67 120.21, -3.53 114.64 M-3.53 114.64 C-0.15 114.3, 4.56 114.31, 9.15 114.49 M9.15 114.49 C6.5 118.61, 7.7 122.61, 2.97 128.15 M2.97 128.15 C2.97 128.15, 2.97 128.15, 2.97 128.15" stroke="#2f9e44" stroke-width="2.5" fill="none"></path></g></g><mask></mask><g stroke-linecap="round"><g transform="translate(529.0994226886426 714.8051620009635) rotate(0 48.078411640669174 -0.30513148338548035)"><path d="M-0.95 0.86 C15.29 0.98, 80.78 0.47, 97.11 0.42 M0.75 0.26 C16.82 0.04, 80.05 -1.2, 95.92 -1.49" stroke="#e03131" stroke-width="2" fill="none"></path></g><g transform="translate(529.0994226886426 714.8051620009635) rotate(0 48.078411640669174 -0.30513148338548035)"><path d="M72.59 7.51 C80.36 4.5, 85.94 1.89, 95.92 -1.49 M72.59 7.51 C80.45 3.92, 88.97 0.53, 95.92 -1.49" stroke="#e03131" stroke-width="2" fill="none"></path></g><g transform="translate(529.0994226886426 714.8051620009635) rotate(0 48.078411640669174 -0.30513148338548035)"><path d="M72.27 -9.59 C80.08 -7.97, 85.75 -5.95, 95.92 -1.49 M72.27 -9.59 C80.11 -7.23, 88.74 -4.67, 95.92 -1.49" stroke="#e03131" stroke-width="2" fill="none"></path></g></g><mask></mask><g stroke-linecap="round"><g transform="translate(528.5347215550765 760.5845565924315) rotate(0 47.90709274724594 -0.5588463501160845)"><path d="M1.11 -0.25 C17.09 -0.52, 78.89 -1.01, 94.7 -0.83" stroke="#2f9e44" stroke-width="2.5" fill="none" stroke-dasharray="8 10"></path></g><g transform="translate(528.5347215550765 760.5845565924315) rotate(0 47.90709274724594 -0.5588463501160845)"><path d="M96.31 0.39 L79.97 5.38 L79.59 -8.27 L93.47 0.82" stroke="none" stroke-width="0" fill="#2f9e44" fill-rule="evenodd"></path><path d="M94.7 -0.83 C91.68 -0.29, 88.2 2.63, 81.11 5.51 M81.11 5.51 C81.4 1.74, 81.49 -5.12, 81.11 -7.17 M81.11 -7.17 C84.38 -6.17, 91.74 -4.25, 94.7 -0.83 M94.7 -0.83 C94.7 -0.83, 94.7 -0.83, 94.7 -0.83" stroke="#2f9e44" stroke-width="2.5" fill="none"></path></g></g><mask></mask><g transform="translate(640.7033424377441 702.0000305175781) rotate(0 41.749969482421875 12.5)"><text x="41.749969482421875" y="17.52" font-family="Virgil, Segoe UI Emoji" font-size="20px" fill="#e03131" text-anchor="middle" style="white-space: pre;" direction="ltr" dominant-baseline="alphabetic">External</text></g><g transform="translate(642.9433403015137 747.5000305175781) rotate(0 39.509971618652344 12.5)"><text x="39.509971618652344" y="17.52" font-family="Virgil, Segoe UI Emoji" font-size="20px" fill="#2f9e44" text-anchor="middle" style="white-space: pre;" direction="ltr" dominant-baseline="alphabetic">Internal</text></g></svg>